<svg id="Layer_1" data-name="Layer 1" xmlns="http://www.w3.org/2000/svg" width="437" height="90" viewBox="0 0 437 90"><title>upsti-logo-horizontal</title><path d="M437,0V90H0V0H437Z" style="fill:#2a3a8c"/><path d="M244.25,64.42v8.21a1,1,0,0,1-1,1,1,1,0,0,1-1-1V64.42a.94.94,0,0,1,1-1A1,1,0,0,1,244.25,64.42Zm-42.63-3.37h0V59.9a.92.92,0,0,0-1-1,1,1,0,0,0-.78.33.92.92,0,0,0-.15.25h0a.73.73,0,0,0-.06.3v.08s0,0,0,0v1.31h0V72.63a.92.92,0,0,0,1,1,.93.93,0,0,0,1-1Zm32,0h0V59.9a.91.91,0,0,0-1-1,1,1,0,0,0-.78.33.73.73,0,0,0-.15.25h0a.94.94,0,0,0-.06.3v.08s0,0,0,0v1.31h0V72.63a.92.92,0,0,0,1,1,.93.93,0,0,0,1-1ZM219.24,65.3l-.6,0h0l-1,0h0a1,1,0,0,0-.81,1.53,1.05,1.05,0,0,0,.7.3l1.26,0a2.32,2.32,0,0,1,2.56,2.23v.28c0,1.4-1.18,2.28-3.07,2.28a5.19,5.19,0,0,1-2.81-.77,1,1,0,0,0-.6-.21.87.87,0,0,0-.75.4.95.95,0,0,0,.25,1.33,7.08,7.08,0,0,0,3.89,1c3.05,0,5.09-1.63,5.09-4.06v-.28C223.31,67,221.8,65.48,219.24,65.3Zm-13.8-47.07-.31,0H201.8a.9.9,0,0,0,0,1.79h3.47a2.12,2.12,0,0,1,2.25,2.41v.21a2.19,2.19,0,0,1-2.44,2.42H201.8a.8.8,0,0,0-.76.9.82.82,0,0,0,.81.88h3.28c3.86,0,4.42-2.64,4.42-4.21v-.21C209.55,19.77,208.13,18.33,205.44,18.23Zm12.48,8.33.58,0h0l1.14.05a.82.82,0,0,0,.9-.87.87.87,0,0,0-.88-1l-1.26-.05a2.3,2.3,0,0,1-2.55-2.21v-.29c0-1.4,1.17-2.28,3.07-2.28a5.09,5.09,0,0,1,2.8.77.88.88,0,0,0,1.35-.19,1,1,0,0,0,.18-.56.91.91,0,0,0-.44-.77,7.09,7.09,0,0,0-3.87-1c-3.05,0-5.11,1.64-5.11,4.06v.29C213.83,24.88,215.36,26.38,217.92,26.56Zm19.55-8.35h-9.42a.89.89,0,0,0,0,1.78h9.42a.89.89,0,1,0,0-1.78Zm-51.9,8.88v-8a.89.89,0,0,0-1.78,0v8a.89.89,0,1,0,1.78,0Zm9,0v-8a.89.89,0,0,0-1.78,0v8a.89.89,0,1,0,1.78,0Zm0,40.58a.89.89,0,0,0-1-.86,1,1,0,0,0-.78.33.92.92,0,0,0-.15.25h0a.88.88,0,0,0-.06.27h0v.14h0V68c0,1.74-.51,3.88-3.4,3.88s-3.37-2.21-3.4-4v-.06h0v-.14h0a.89.89,0,0,0-.95-.86,1,1,0,0,0-.78.33,1.32,1.32,0,0,0-.16.25h0a.86.86,0,0,0-.05.27h0c0,2.73.93,6,5.39,6s5.39-3.25,5.39-6h0Z" style="fill:#4e97cd"/><path d="M243.21,24.33A1.67,1.67,0,1,1,241.54,26,1.69,1.69,0,0,1,243.21,24.33Zm-51.1,23.24V39.63a1.38,1.38,0,0,1,1.45-1.48A1.35,1.35,0,0,1,195,39.63v7.94c0,3.63-1.59,6.44-5.85,6.44s-5.86-2.81-5.86-6.44V39.63a1.36,1.36,0,0,1,1.47-1.48,1.39,1.39,0,0,1,1.45,1.48v7.94c0,2.44.8,3.71,2.94,3.71S192.11,50,192.11,47.57Zm12.79-9.28h-4.3a1.36,1.36,0,0,0-1.41,1.34V52.48a1.46,1.46,0,1,0,2.91,0V47.83h2.8c3.41,0,4.9-2,4.9-4.67V43C209.8,39.9,208,38.29,204.9,38.29Zm2,4.87a1.74,1.74,0,0,1-2,2h-2.8V41h2.8c1.48,0,2,.74,2,2Zm14.17,6c0-1.06-.71-1.75-2.11-1.75h-.64c-3.14,0-5.06-1.78-5.06-4.51v-.29c0-2.79,2.35-4.52,5.58-4.52a7.47,7.47,0,0,1,4.11,1.1,1.35,1.35,0,0,1,.66,1.15,1.47,1.47,0,0,1-.27.84,1.34,1.34,0,0,1-1.12.6,1.58,1.58,0,0,1-.86-.29,4.64,4.64,0,0,0-2.55-.69c-1.61,0-2.61.67-2.61,1.81v.29c0,1,.82,1.75,2.12,1.75h.64c3.3,0,5.06,1.7,5.06,4.51v.28c0,2.8-2.36,4.53-5.58,4.53a7.74,7.74,0,0,1-4.12-1.09,1.4,1.4,0,0,1-.65-1.18,1.49,1.49,0,0,1,.27-.83,1.31,1.31,0,0,1,1.12-.59,1.48,1.48,0,0,1,.86.29,4,4,0,0,0,2.55.69c1.6,0,2.6-.68,2.6-1.82ZM237.49,41h-3.38V52.5A1.43,1.43,0,0,1,232.67,54a1.36,1.36,0,0,1-1.41-1.49V41h-3.19a1.36,1.36,0,1,1,0-2.71h9.42a1.36,1.36,0,1,1,0,2.71Zm5.72,13a1.47,1.47,0,0,1-1.47-1.48V45.24a1.41,1.41,0,0,1,1.47-1.5,1.47,1.47,0,0,1,1.47,1.5v7.29A1.4,1.4,0,0,1,243.21,54Z" style="fill:#fff"/><path d="M275.77,43.81h-1a.26.26,0,0,1-.28-.28v-.44a.26.26,0,0,1,.28-.28h1v-1.6a2.74,2.74,0,0,1,2.85-2.82,4.1,4.1,0,0,1,.94.1.27.27,0,0,1,.23.36l-.11.54c0,.19-.15.27-.32.23a3.68,3.68,0,0,0-.72-.08A1.58,1.58,0,0,0,277,41.21v1.6h2.27c.19,0,.26.15.19.34l-.15.4a.34.34,0,0,1-.38.26H277v8.37a.26.26,0,0,1-.28.28h-.68a.26.26,0,0,1-.28-.28Zm10-1.25c-2.17,0-3.8,1.29-3.8,4.23v1.67c0,2.92,1.63,4.24,3.8,4.24s3.81-1.32,3.81-4.24V46.81C289.53,43.87,287.91,42.56,285.72,42.56Zm2.57,5.8c0,2.42-1.14,3.19-2.57,3.19s-2.55-.77-2.55-3.19V46.91c0-2.44,1.13-3.19,2.55-3.19s2.57.75,2.57,3.19Zm4.92-2.26a3.41,3.41,0,0,1,3.56-3.54c.2,0,.54,0,.71.06s.38.15.32.43l-.09.48c0,.21-.19.26-.45.22s-.29,0-.48,0a2.23,2.23,0,0,0-2.32,2.38v6.08a.26.26,0,0,1-.28.28h-.68a.27.27,0,0,1-.29-.28Zm13-6a.86.86,0,0,1,.88-.85.88.88,0,0,1,.89.85.89.89,0,0,1-.89.87A.88.88,0,0,1,306.21,40.11Zm.26,3a.26.26,0,0,1,.28-.28h.68a.27.27,0,0,1,.29.28v9.09a.27.27,0,0,1-.29.28h-.68a.26.26,0,0,1-.28-.28Zm5.31,3.31a3.53,3.53,0,0,1,3.6-3.84A3.48,3.48,0,0,1,319,46.4v5.78a.26.26,0,0,1-.28.28H318a.27.27,0,0,1-.29-.28V46.49c0-1.85-1-2.77-2.32-2.77s-2.36.92-2.36,2.77v5.69a.26.26,0,0,1-.28.28h-.68a.26.26,0,0,1-.28-.28Zm11.14,0a3.53,3.53,0,0,1,3.6-3.84c2,0,3.57,1.35,3.57,3.84v5.78a.26.26,0,0,1-.28.28h-.68a.26.26,0,0,1-.28-.28V46.49c0-1.85-1-2.77-2.33-2.77s-2.36.92-2.36,2.77v5.69a.26.26,0,0,1-.28.28h-.68a.26.26,0,0,1-.28-.28Zm14.65-3.84c-2.17,0-3.79,1.29-3.79,4.23v1.67c0,2.92,1.62,4.24,3.79,4.24s3.82-1.32,3.82-4.24V46.81C341.39,43.87,339.76,42.56,337.57,42.56Zm2.57,5.8c0,2.42-1.13,3.19-2.57,3.19S335,50.78,335,48.36V46.91c0-2.44,1.13-3.19,2.55-3.19s2.57.75,2.57,3.19ZM344,43.13a.23.23,0,0,1,.21-.32h.68a.35.35,0,0,1,.38.28l2.19,6.5c.15.43.3,1.08.45,1.64.15-.58.32-1.21.47-1.64l2.19-6.5a.39.39,0,0,1,.38-.28h.68c.19,0,.28.1.21.32l-3.08,9a.42.42,0,0,1-.4.34h-.88a.42.42,0,0,1-.4-.32Zm13.63-.57a8.52,8.52,0,0,0-2.43.38c-.25.08-.28.17-.23.42l.12.45c0,.23.13.3.34.25a9,9,0,0,1,2.2-.34c1.46,0,2.2.87,2.2,2.4v.66h-2.23c-2,0-3.38,1.07-3.38,2.9a3.45,3.45,0,0,0,6.85,0V46.12A3.22,3.22,0,0,0,357.58,42.56Zm2.2,7.12a2.19,2.19,0,0,1-4.33,0c0-1,.66-1.78,2.1-1.78h2.23Zm5.3-5.87h-1a.35.35,0,0,1-.38-.24l-.19-.46c-.07-.17,0-.3.17-.3h1.36V40.26a.35.35,0,0,1,.27-.36l.58-.17c.27-.07.4.06.4.23v2.85h1.77a.27.27,0,0,1,.29.28v.44a.27.27,0,0,1-.29.28h-1.77v8.37a.26.26,0,0,1-.28.28h-.68a.27.27,0,0,1-.29-.28Zm5.93-3.7a.87.87,0,0,1,.89-.85.88.88,0,0,1,.89.85.9.9,0,0,1-.89.87A.89.89,0,0,1,371,40.11Zm.27,3a.26.26,0,0,1,.28-.28h.68a.26.26,0,0,1,.28.28v9.09a.26.26,0,0,1-.28.28h-.68a.26.26,0,0,1-.28-.28Zm8.81-.53c-2.17,0-3.79,1.29-3.79,4.23v1.67c0,2.92,1.62,4.24,3.79,4.24s3.82-1.32,3.82-4.24V46.81C383.91,43.87,382.28,42.56,380.09,42.56Zm2.57,5.8c0,2.42-1.13,3.19-2.57,3.19s-2.55-.77-2.55-3.19V46.91c0-2.44,1.14-3.19,2.55-3.19s2.57.75,2.57,3.19Zm4.93-2a3.53,3.53,0,0,1,3.61-3.84c2,0,3.56,1.35,3.56,3.84v5.78a.26.26,0,0,1-.28.28h-.68a.26.26,0,0,1-.28-.28V46.49c0-1.85-1-2.77-2.32-2.77s-2.36.92-2.36,2.77v5.69a.27.27,0,0,1-.29.28h-.68a.26.26,0,0,1-.28-.28Z" style="fill:#fff"/><path d="M1.79,43.79h-1a.34.34,0,0,1-.38-.25l-.19-.45c-.07-.17,0-.3.17-.3H1.79V40.24a.35.35,0,0,1,.27-.36l.58-.17c.27-.07.4.06.4.23v2.85H4.81a.27.27,0,0,1,.29.28v.44a.27.27,0,0,1-.29.28H3v8.36a.27.27,0,0,1-.28.29H2.08a.28.28,0,0,1-.29-.29Zm9.41-1.25A3.51,3.51,0,0,0,7.61,46.4v2.35a3.57,3.57,0,0,0,3.78,3.93,9,9,0,0,0,2.51-.36c.2,0,.3-.17.26-.36l-.13-.6c0-.17-.19-.23-.4-.17a8.81,8.81,0,0,1-2.24.34c-1.53,0-2.53-.85-2.53-2.78V48h5.66a.26.26,0,0,0,.28-.28V46A3.45,3.45,0,0,0,11.2,42.54Zm2.36,4.33H8.86V46.4c0-1.86,1-2.71,2.34-2.71A2.25,2.25,0,0,1,13.56,46Zm7.68-4.33a8.46,8.46,0,0,0-2.43.38c-.25.08-.29.17-.23.42l.11.45c.06.23.14.3.34.24a9.17,9.17,0,0,1,2.21-.34c1.46,0,2.19.87,2.19,2.4v.66H21.2c-2,0-3.37,1.08-3.37,2.91a3.23,3.23,0,0,0,3.45,3,3.21,3.21,0,0,0,3.4-3V46.09A3.22,3.22,0,0,0,21.24,42.54Zm2.19,7.12a2,2,0,0,1-2.15,1.87,2,2,0,0,1-2.17-1.91c0-1,.66-1.77,2.09-1.77h2.23Zm4.65-2.91c0-2.89,1.58-4.21,3.91-4.21a9.05,9.05,0,0,1,2.41.36c.19.06.25.17.21.38l-.09.51a.29.29,0,0,1-.36.23A8.59,8.59,0,0,0,32,43.69c-1.8,0-2.69,1-2.69,3.2v1.43c0,2.19.89,3.21,2.69,3.21a8.66,8.66,0,0,0,2.09-.28c.23-.06.38,0,.42.2l.09.49c0,.21-.06.34-.28.4a8.92,8.92,0,0,1-2.34.34c-2.33,0-3.91-1.34-3.91-4.23ZM38.26,38.9a.26.26,0,0,1,.28-.28h.68a.26.26,0,0,1,.28.28v4.44a4.76,4.76,0,0,1,2.51-.8c2,0,3.44,1,3.44,3.84v5.77a.27.27,0,0,1-.28.29h-.68a.28.28,0,0,1-.29-.29V46.47c0-2.17-1-2.78-2.28-2.78a4.48,4.48,0,0,0-2.42.84v7.62a.27.27,0,0,1-.28.29h-.68a.27.27,0,0,1-.28-.29Zm11,1.19a.86.86,0,0,1,.88-.85.88.88,0,0,1,.89.85.9.9,0,0,1-.89.87A.88.88,0,0,1,49.25,40.09Zm.26,3a.26.26,0,0,1,.28-.28h.68a.27.27,0,0,1,.29.28v9.08a.28.28,0,0,1-.29.29h-.68a.27.27,0,0,1-.28-.29Zm5.31,3.31a3.52,3.52,0,0,1,3.6-3.84c2,0,3.57,1.34,3.57,3.84v5.77a.27.27,0,0,1-.28.29H61a.28.28,0,0,1-.29-.29V46.47c0-1.85-1-2.78-2.32-2.78s-2.36.93-2.36,2.78v5.68a.27.27,0,0,1-.28.29H55.1a.27.27,0,0,1-.28-.29Zm17.71-3.76-2.44.17a3.76,3.76,0,0,0-1.34-.25,3.15,3.15,0,0,0-3.32,3.25V47A3,3,0,0,0,67,49.77a1.39,1.39,0,0,0-.59,1c0,2.32,4.93,1.21,4.93,3.17,0,.8-.76,1.53-2.55,1.53a8.07,8.07,0,0,1-3-.68.28.28,0,0,0-.4.19l-.19.49a.32.32,0,0,0,.19.44,9.51,9.51,0,0,0,3.38.72c2.6,0,3.83-1.35,3.83-2.76,0-2.81-5-2.15-5-3.23a.73.73,0,0,1,.34-.53,4.56,4.56,0,0,0,.75.06A3.1,3.1,0,0,0,72,47V45.79a3.27,3.27,0,0,0-.72-2.1l1.15-.07c.19,0,.28-.08.3-.28l0-.48C72.83,42.69,72.73,42.6,72.53,42.62ZM70.81,47a2.08,2.08,0,1,1-4.15,0V45.79a1.92,1.92,0,0,1,2.09-2.1,1.88,1.88,0,0,1,2.06,2.1ZM81,51.38c0-.19.18-.25.41-.19a8.53,8.53,0,0,0,2.12.34c1.22,0,2-.66,2-1.57,0-2.49-4.53-1.49-4.53-4.81,0-1.49,1.13-2.61,3-2.61a7.86,7.86,0,0,1,2.14.32c.19.06.28.17.22.36l-.17.59c0,.19-.18.22-.39.17a6.37,6.37,0,0,0-1.8-.29c-1.19,0-1.77.61-1.77,1.46,0,2.26,4.53,1.32,4.53,4.78,0,1.34-1,2.75-3.3,2.75a8,8,0,0,1-2.42-.36.31.31,0,0,1-.23-.38Zm8.93-4.63c0-2.89,1.58-4.21,3.91-4.21a9.12,9.12,0,0,1,2.41.36c.19.06.25.17.21.38l-.09.51A.29.29,0,0,1,96,44a8.66,8.66,0,0,0-2.15-.33c-1.8,0-2.69,1-2.69,3.2v1.43c0,2.19.89,3.21,2.69,3.21A8.66,8.66,0,0,0,96,51.25c.23-.06.38,0,.42.2l.09.49c0,.21-.06.34-.28.4a9,9,0,0,1-2.34.34c-2.33,0-3.91-1.34-3.91-4.23Zm9.91-6.66a.87.87,0,0,1,.89-.85.88.88,0,0,1,.89.85.9.9,0,0,1-.89.87A.89.89,0,0,1,99.85,40.09Zm.27,3a.26.26,0,0,1,.28-.28h.68a.26.26,0,0,1,.28.28v9.08a.27.27,0,0,1-.28.29h-.68a.27.27,0,0,1-.28-.29Zm8.61-.53a3.51,3.51,0,0,0-3.59,3.86v2.35a3.56,3.56,0,0,0,3.77,3.93,8.87,8.87,0,0,0,2.51-.36c.21,0,.31-.17.27-.36l-.13-.6c0-.17-.19-.23-.4-.17a8.9,8.9,0,0,1-2.25.34c-1.53,0-2.53-.85-2.53-2.78V48h5.67a.26.26,0,0,0,.28-.28V46A3.45,3.45,0,0,0,108.73,42.54Zm2.36,4.33h-4.71V46.4c0-1.86,1-2.71,2.35-2.71A2.25,2.25,0,0,1,111.09,46Zm4.83-.49a3.52,3.52,0,0,1,3.61-3.84c2,0,3.56,1.34,3.56,3.84v5.77a.27.27,0,0,1-.28.29h-.68a.27.27,0,0,1-.28-.29V46.47c0-1.85-1-2.78-2.32-2.78s-2.36.93-2.36,2.78v5.68a.28.28,0,0,1-.29.29h-.68a.27.27,0,0,1-.28-.29Zm10.86.37c0-2.89,1.58-4.21,3.9-4.21a9.13,9.13,0,0,1,2.42.36c.19.06.25.17.21.38l-.09.51a.29.29,0,0,1-.36.23,8.67,8.67,0,0,0-2.16-.33c-1.79,0-2.68,1-2.68,3.2v1.43c0,2.19.89,3.21,2.68,3.21a8.68,8.68,0,0,0,2.1-.28c.23-.06.38,0,.42.2l.09.49c0,.21-.06.34-.28.4a9,9,0,0,1-2.35.34c-2.32,0-3.9-1.34-3.9-4.23Zm13.39-4.21a3.51,3.51,0,0,0-3.59,3.86v2.35a3.56,3.56,0,0,0,3.77,3.93,8.87,8.87,0,0,0,2.51-.36c.21,0,.31-.17.27-.36l-.13-.6c0-.17-.19-.23-.4-.17a8.83,8.83,0,0,1-2.25.34c-1.53,0-2.53-.85-2.53-2.78V48h5.67a.26.26,0,0,0,.28-.28V46A3.45,3.45,0,0,0,140.17,42.54Zm2.35,4.33h-4.7V46.4c0-1.86,1-2.71,2.35-2.71A2.25,2.25,0,0,1,142.52,46Zm4.42,4.51c0-.19.19-.25.42-.19a8.44,8.44,0,0,0,2.11.34c1.23,0,2-.66,2-1.57,0-2.49-4.53-1.49-4.53-4.81,0-1.49,1.13-2.61,3.06-2.61a7.71,7.71,0,0,1,2.13.32c.19.06.29.17.23.36l-.17.59c-.06.19-.19.22-.4.17a6.23,6.23,0,0,0-1.79-.29c-1.19,0-1.77.61-1.77,1.46,0,2.26,4.53,1.32,4.53,4.78,0,1.34-1,2.75-3.31,2.75a8,8,0,0,1-2.41-.36.31.31,0,0,1-.23-.38Z" style="fill:#fff"/></svg>